<svg width="54" height="64" viewBox="0 0 54 64" fill="none" xmlns="http://www.w3.org/2000/svg">
<path d="M26.4033 1.17871C26.8563 1.03712 27.3478 1.0613 27.7881 1.25L51.2119 11.2891L51.3604 11.3594C52.0328 11.7152 52.4461 12.4241 52.4238 13.1846L52.4121 13.3477L49.2607 41.71C49.0735 43.3947 48.2818 44.9502 47.0391 46.0918L46.7852 46.3145L28.2803 61.7344C27.585 62.3138 26.5945 62.3507 25.8623 61.8438L25.7197 61.7344L7.21484 46.3145C5.91279 45.2293 5.05221 43.711 4.78516 42.0449L4.73926 41.71L1.58789 13.3477C1.49065 12.472 1.97825 11.6362 2.78809 11.2891L26.2119 1.25L26.4033 1.17871Z" stroke="#33363F" stroke-width="2" stroke-linecap="round"/>
</svg>
